@startuml
title LocalPoseFuser Node Class Diagram

namespace ros {
    class Subscriber
    class Publisher
}
namespace fast::rf {
    namespace PoseSystem {
        namespace LocalPoseSubsystem {
            namespace LocalPoseFuser {
                interface ILocalPoseFuserProcess
                class BasicLocalPoseFuserProcess
                BasicLocalPoseFuserProcess -up-|> ILocalPoseFuserProcess
            }
        }
    }
}
namespace fast::rf_ros {
   namespace PoseSystem {
        namespace LocalPoseSubsystem {
            package LocalPoseFuser #LightYellow;line:blue {
                class LocalPoseFuserNode <<ROS>> #LimeGreen {
                    -ILocalPoseFuserProcess process
                    -Subscriber machine_inertial_sub
                    -Publisher local_pose_pub
                    -Publisher local_pose_angular_accel_pub
                }
                LocalPoseFuserNode --> ILocalPoseFuserProcess: <<use>>
                LocalPoseFuserNode *--> BasicLocalPoseFuserProcess
            }
        }
    }
}
@enduml
        